<?xml version="1.0" encoding="UTF-8" standalone="no"?>
<!DOCTYPE svg PUBLIC "-//W3C//DTD SVG 1.1//EN" "http://www.w3.org/Graphics/SVG/1.1/DTD/svg11.dtd">
<svg width="100%" height="100%" viewBox="0 0 1080 1080" version="1.1" xmlns="http://www.w3.org/2000/svg" xmlns:xlink="http://www.w3.org/1999/xlink" xml:space="preserve" xmlns:serif="http://www.serif.com/" style="fill-rule:evenodd;clip-rule:evenodd;stroke-linejoin:round;stroke-miterlimit:2;">
    <rect x="0" y="0" width="1080" height="1080" style="fill:url(#_Linear1);"/>
    <g transform="matrix(1.24331,0,0,1.24331,-139.355,-1.92142)">
        <g transform="matrix(474.656,0,0,474.656,128,602)">
            <path d="M0.08,-0L0.227,-0L0.227,-0.247L0.335,-0.247L0.482,-0.066L0.482,-0L0.636,-0L0.636,-0.093L0.49,-0.271C0.573,-0.309 0.619,-0.388 0.619,-0.477C0.619,-0.589 0.529,-0.7 0.372,-0.7L0.08,-0.7L0.08,-0ZM0.227,-0.379L0.227,-0.568L0.369,-0.568C0.429,-0.568 0.468,-0.526 0.468,-0.474C0.468,-0.421 0.429,-0.379 0.369,-0.379L0.227,-0.379Z" style="fill:rgb(245,226,226);fill-rule:nonzero;"/>
        </g>
        <g transform="matrix(474.656,0,0,474.656,444.121,602)">
            <path d="M0.21,-0L0.355,-0L0.355,-0.7L0.209,-0.7L0.105,-0.605L0.035,-0.605L0.035,-0.446L0.121,-0.446L0.21,-0.529L0.21,-0Z" style="fill:rgb(245,226,226);fill-rule:nonzero;"/>
        </g>
        <g transform="matrix(474.656,0,0,474.656,650.596,602)">
            <path d="M0.316,0.009C0.487,0.009 0.582,-0.121 0.582,-0.35C0.582,-0.578 0.487,-0.709 0.316,-0.709C0.145,-0.709 0.05,-0.578 0.05,-0.35C0.05,-0.121 0.145,0.009 0.316,0.009ZM0.199,-0.35C0.199,-0.502 0.24,-0.571 0.316,-0.571C0.392,-0.571 0.433,-0.502 0.433,-0.35C0.433,-0.197 0.393,-0.129 0.316,-0.129C0.239,-0.129 0.199,-0.197 0.199,-0.35Z" style="fill:rgb(245,226,226);fill-rule:nonzero;"/>
        </g>
    </g>
    <defs>
        <linearGradient id="_Linear1" x1="0" y1="0" x2="1" y2="0" gradientUnits="userSpaceOnUse" gradientTransform="matrix(-1080,1080,-1080,-1080,1080,0)"><stop offset="0" style="stop-color:rgb(191,155,222);stop-opacity:1"/><stop offset="1" style="stop-color:rgb(252,174,187);stop-opacity:1"/></linearGradient>
    </defs>
</svg>
