<?xml version="1.0" encoding="UTF-8" standalone="no"?><!DOCTYPE svg PUBLIC "-//W3C//DTD SVG 1.1//EN" "http://www.w3.org/Graphics/SVG/1.1/DTD/svg11.dtd"><svg width="100%" height="100%" viewBox="0 0 15038 2892" version="1.1" xmlns="http://www.w3.org/2000/svg" xmlns:xlink="http://www.w3.org/1999/xlink" xml:space="preserve" xmlns:serif="http://www.serif.com/" style="fill-rule:evenodd;clip-rule:evenodd;stroke-linejoin:round;stroke-miterlimit:2;"><path d="M12.425,2846.76l583.139,-0l-0,-979.831l428.428,-0l583.138,718.014l0,261.817l610.907,-0l-0,-368.924l-579.172,-706.113c329.255,-150.744 511.734,-464.131 511.734,-817.187c0,-444.296 -357.023,-884.625 -979.831,-884.625l-1158.34,-0l0,2776.85Zm583.139,-1503.47l-0,-749.749l563.303,0c238.016,0 392.726,166.611 392.726,372.891c0,210.248 -154.71,376.858 -392.726,376.858l-563.303,0Z" style="fill:#eee9ea;fill-rule:nonzero;"/><path d="M2297.38,2846.76l706.113,-0l368.925,-599.006l844.955,-0l-0,599.006l587.105,-0l0,-2776.85l-721.981,-0l-1785.12,2776.85Zm1420.16,-1154.38l499.833,-809.253l-0,809.253l-499.833,0Z" style="fill:#eee9ea;fill-rule:nonzero;"/><path d="M4963.15,2846.76l979.831,-0c868.757,-0 1475.7,-614.874 1475.7,-1388.42c-0,-833.054 -606.94,-1388.42 -1475.7,-1388.42l-979.831,-0l0,2776.85Zm587.105,-523.635l0,-1729.58l396.693,0c479.998,0 856.856,309.421 856.856,864.79c0,559.337 -376.858,864.79 -856.856,864.79l-396.693,0Z" style="fill:#eee9ea;fill-rule:nonzero;"/><rect x="7557.52" y="69.909" width="595.039" height="2776.85" style="fill:#eee9ea;fill-rule:nonzero;"/><path d="M9818.67,2882.46c837.021,0 1447.93,-610.907 1447.93,-1424.13c0,-817.187 -610.907,-1424.13 -1447.93,-1424.13c-837.022,-0 -1447.93,606.939 -1447.93,1424.13c0,813.22 610.907,1424.13 1447.93,1424.13Zm-833.055,-1424.13c0,-511.733 380.825,-844.955 833.055,-844.955c452.229,-0 833.054,333.222 833.054,844.955c0,511.734 -380.825,844.956 -833.054,844.956c-452.23,-0 -833.055,-333.222 -833.055,-844.956Z" style="fill:#eee9ea;fill-rule:nonzero;"/><path d="M12159.2,2846.76l575.204,-0l0,-2776.85l-579.171,-0l-412.561,376.858l-277.685,-0l0,630.741l341.156,0l353.057,-329.255l-0,2098.51Z" style="fill:#eee9ea;fill-rule:nonzero;"/><path d="M13948.2,2882.46c678.344,0 1055.2,-515.7 1055.2,-1424.13c0,-904.459 -376.858,-1424.13 -1055.2,-1424.13c-678.345,-0 -1055.2,519.667 -1055.2,1424.13c0,908.427 376.858,1424.13 1055.2,1424.13Zm-464.131,-1424.13c0,-602.973 162.644,-876.691 464.131,-876.691c301.486,0 464.13,273.718 464.13,876.691c0,606.94 -158.677,876.691 -464.13,876.691c-305.454,0 -464.131,-269.751 -464.131,-876.691Z" style="fill:#eee9ea;fill-rule:nonzero;"/></svg>